<?xml version="1.0" standalone="no"?><!DOCTYPE svg PUBLIC "-//W3C//DTD SVG 1.1//EN" "http://www.w3.org/Graphics/SVG/1.1/DTD/svg11.dtd"><svg xmlns="http://www.w3.org/2000/svg" viewBox="0 0 1250 750" version="1.1"><clipPath id="box"><rect x="0" y="0" width="1250" height="750" style="fill:none;stroke:none;" /></clipPath><g clip-path="url(#box)"><rect x="0.00" y="0.00" width="1250.00" height="750.00" style="fill:#FFFFFF;stroke:none;" /><path d="M0.00 712.00 L1250.00 712.00 M0.00 675.00 L1250.00 675.00 M0.00 637.00 L1250.00 637.00 M0.00 600.00 L1250.00 600.00 M0.00 562.00 L1250.00 562.00 M0.00 525.00 L1250.00 525.00 M0.00 487.00 L1250.00 487.00 M0.00 450.00 L1250.00 450.00 M0.00 412.00 L1250.00 412.00 M0.00 375.00 L1250.00 375.00 M0.00 337.00 L1250.00 337.00 M0.00 300.00 L1250.00 300.00 M0.00 262.00 L1250.00 262.00 M0.00 225.00 L1250.00 225.00 M0.00 187.00 L1250.00 187.00 M0.00 149.00 L1250.00 149.00 M0.00 112.00 L1250.00 112.00 M0.00 74.00 L1250.00 74.00 M0.00 37.00 L1250.00 37.00 M62.00 0.00 L62.00 750.00 M124.00 0.00 L124.00 750.00 M187.00 0.00 L187.00 750.00 M249.00 0.00 L249.00 750.00 M312.00 0.00 L312.00 750.00 M374.00 0.00 L374.00 750.00 M437.00 0.00 L437.00 750.00 M499.00 0.00 L499.00 750.00 M562.00 0.00 L562.00 750.00 M624.00 0.00 L624.00 750.00 M687.00 0.00 L687.00 750.00 M750.00 0.00 L750.00 750.00 M812.00 0.00 L812.00 750.00 M875.00 0.00 L875.00 750.00 M937.00 0.00 L937.00 750.00 M1000.00 0.00 L1000.00 750.00 M1062.00 0.00 L1062.00 750.00 M1125.00 0.00 L1125.00 750.00 M1187.00 0.00 L1187.00 750.00 " style="fill:none;stroke:#D0D0D0;stroke-width:1;" /><path d="M625.00 0.00 L625.00 750.00 " style="fill:none;stroke:#000000;stroke-width:1;" /><path d="M612.50 750.00 L637.50 750.00 M612.50 712.50 L637.50 712.50 M612.50 675.00 L637.50 675.00 M612.50 637.50 L637.50 637.50 M612.50 600.00 L637.50 600.00 M612.50 562.50 L637.50 562.50 M612.50 525.00 L637.50 525.00 M612.50 487.50 L637.50 487.50 M612.50 450.00 L637.50 450.00 M612.50 412.50 L637.50 412.50 M612.50 375.00 L637.50 375.00 M612.50 337.50 L637.50 337.50 M612.50 300.00 L637.50 300.00 M612.50 262.50 L637.50 262.50 M612.50 225.00 L637.50 225.00 M612.50 187.50 L637.50 187.50 M612.50 150.00 L637.50 150.00 M612.50 112.50 L637.50 112.50 M612.50 75.00 L637.50 75.00 M612.50 37.50 L637.50 37.50 " style="fill:none;stroke:#000000;stroke-width:1;" /><path d="M0.00 375.00 L1250.00 375.00 " style="fill:none;stroke:#000000;stroke-width:1;" /><path d="M-0.00 362.50 L-0.00 387.50 M62.50 362.50 L62.50 387.50 M125.00 362.50 L125.00 387.50 M187.50 362.50 L187.50 387.50 M250.00 362.50 L250.00 387.50 M312.50 362.50 L312.50 387.50 M375.00 362.50 L375.00 387.50 M437.50 362.50 L437.50 387.50 M500.00 362.50 L500.00 387.50 M562.50 362.50 L562.50 387.50 M625.00 362.50 L625.00 387.50 M687.50 362.50 L687.50 387.50 M750.00 362.50 L750.00 387.50 M812.50 362.50 L812.50 387.50 M875.00 362.50 L875.00 387.50 M937.50 362.50 L937.50 387.50 M1000.00 362.50 L1000.00 387.50 M1062.50 362.50 L1062.50 387.50 M1125.00 362.50 L1125.00 387.50 M1187.50 362.50 L1187.50 387.50 " style="fill:none;stroke:#000000;stroke-width:1;" /><text x="640.625" y="715.0000000000001" text-anchor="start" style="font:10px Droid Sans,Trebuchet MS,Arial,Helvetica,sans-serif;stroke:none;fill:#000000">-0.9</text><text x="640.625" y="677.5000000000002" text-anchor="start" style="font:10px Droid Sans,Trebuchet MS,Arial,Helvetica,sans-serif;stroke:none;fill:#000000">-0.8</text><text x="640.625" y="640.0000000000001" text-anchor="start" style="font:10px Droid Sans,Trebuchet MS,Arial,Helvetica,sans-serif;stroke:none;fill:#000000">-0.7</text><text x="640.625" y="602.5" text-anchor="start" style="font:10px Droid Sans,Trebuchet MS,Arial,Helvetica,sans-serif;stroke:none;fill:#000000">-0.6</text><text x="640.625" y="565.0000000000001" text-anchor="start" style="font:10px Droid Sans,Trebuchet MS,Arial,Helvetica,sans-serif;stroke:none;fill:#000000">-0.5</text><text x="640.625" y="527.5000000000001" text-anchor="start" style="font:10px Droid Sans,Trebuchet MS,Arial,Helvetica,sans-serif;stroke:none;fill:#000000">-0.4</text><text x="640.625" y="490.0000000000001" text-anchor="start" style="font:10px Droid Sans,Trebuchet MS,Arial,Helvetica,sans-serif;stroke:none;fill:#000000">-0.3</text><text x="640.625" y="452.50000000000006" text-anchor="start" style="font:10px Droid Sans,Trebuchet MS,Arial,Helvetica,sans-serif;stroke:none;fill:#000000">-0.2</text><text x="640.625" y="415.0000000000001" text-anchor="start" style="font:10px Droid Sans,Trebuchet MS,Arial,Helvetica,sans-serif;stroke:none;fill:#000000">-0.1</text><text x="640.625" y="377.50000000000006" text-anchor="start" style="font:10px Droid Sans,Trebuchet MS,Arial,Helvetica,sans-serif;stroke:none;fill:#000000">0</text><text x="640.625" y="340.00000000000006" text-anchor="start" style="font:10px Droid Sans,Trebuchet MS,Arial,Helvetica,sans-serif;stroke:none;fill:#000000">0.1</text><text x="640.625" y="302.5" text-anchor="start" style="font:10px Droid Sans,Trebuchet MS,Arial,Helvetica,sans-serif;stroke:none;fill:#000000">0.2</text><text x="640.625" y="265" text-anchor="start" style="font:10px Droid Sans,Trebuchet MS,Arial,Helvetica,sans-serif;stroke:none;fill:#000000">0.3</text><text x="640.625" y="227.5" text-anchor="start" style="font:10px Droid Sans,Trebuchet MS,Arial,Helvetica,sans-serif;stroke:none;fill:#000000">0.4</text><text x="640.625" y="189.99999999999997" text-anchor="start" style="font:10px Droid Sans,Trebuchet MS,Arial,Helvetica,sans-serif;stroke:none;fill:#000000">0.5</text><text x="640.625" y="152.49999999999997" text-anchor="start" style="font:10px Droid Sans,Trebuchet MS,Arial,Helvetica,sans-serif;stroke:none;fill:#000000">0.6</text><text x="640.625" y="114.99999999999997" text-anchor="start" style="font:10px Droid Sans,Trebuchet MS,Arial,Helvetica,sans-serif;stroke:none;fill:#000000">0.7</text><text x="640.625" y="77.49999999999996" text-anchor="start" style="font:10px Droid Sans,Trebuchet MS,Arial,Helvetica,sans-serif;stroke:none;fill:#000000">0.8</text><text x="640.625" y="39.99999999999996" text-anchor="start" style="font:10px Droid Sans,Trebuchet MS,Arial,Helvetica,sans-serif;stroke:none;fill:#000000">0.9</text><text x="62.499999999999794" y="398.625" text-anchor="middle" style="font:10px Droid Sans,Trebuchet MS,Arial,Helvetica,sans-serif;stroke:none;fill:#000000">-0.9</text><text x="124.9999999999998" y="398.625" text-anchor="middle" style="font:10px Droid Sans,Trebuchet MS,Arial,Helvetica,sans-serif;stroke:none;fill:#000000">-0.8</text><text x="187.49999999999983" y="398.625" text-anchor="middle" style="font:10px Droid Sans,Trebuchet MS,Arial,Helvetica,sans-serif;stroke:none;fill:#000000">-0.7</text><text x="249.9999999999998" y="398.625" text-anchor="middle" style="font:10px Droid Sans,Trebuchet MS,Arial,Helvetica,sans-serif;stroke:none;fill:#000000">-0.6</text><text x="312.49999999999983" y="398.625" text-anchor="middle" style="font:10px Droid Sans,Trebuchet MS,Arial,Helvetica,sans-serif;stroke:none;fill:#000000">-0.5</text><text x="374.99999999999983" y="398.625" text-anchor="middle" style="font:10px Droid Sans,Trebuchet MS,Arial,Helvetica,sans-serif;stroke:none;fill:#000000">-0.4</text><text x="437.49999999999983" y="398.625" text-anchor="middle" style="font:10px Droid Sans,Trebuchet MS,Arial,Helvetica,sans-serif;stroke:none;fill:#000000">-0.3</text><text x="499.99999999999983" y="398.625" text-anchor="middle" style="font:10px Droid Sans,Trebuchet MS,Arial,Helvetica,sans-serif;stroke:none;fill:#000000">-0.2</text><text x="562.4999999999999" y="398.625" text-anchor="middle" style="font:10px Droid Sans,Trebuchet MS,Arial,Helvetica,sans-serif;stroke:none;fill:#000000">-0.1</text><text x="624.9999999999999" y="398.625" text-anchor="middle" style="font:10px Droid Sans,Trebuchet MS,Arial,Helvetica,sans-serif;stroke:none;fill:#000000">0</text><text x="687.5" y="398.625" text-anchor="middle" style="font:10px Droid Sans,Trebuchet MS,Arial,Helvetica,sans-serif;stroke:none;fill:#000000">0.1</text><text x="750" y="398.625" text-anchor="middle" style="font:10px Droid Sans,Trebuchet MS,Arial,Helvetica,sans-serif;stroke:none;fill:#000000">0.2</text><text x="812.5" y="398.625" text-anchor="middle" style="font:10px Droid Sans,Trebuchet MS,Arial,Helvetica,sans-serif;stroke:none;fill:#000000">0.3</text><text x="875" y="398.625" text-anchor="middle" style="font:10px Droid Sans,Trebuchet MS,Arial,Helvetica,sans-serif;stroke:none;fill:#000000">0.4</text><text x="937.5" y="398.625" text-anchor="middle" style="font:10px Droid Sans,Trebuchet MS,Arial,Helvetica,sans-serif;stroke:none;fill:#000000">0.5</text><text x="1000" y="398.625" text-anchor="middle" style="font:10px Droid Sans,Trebuchet MS,Arial,Helvetica,sans-serif;stroke:none;fill:#000000">0.6</text><text x="1062.5" y="398.625" text-anchor="middle" style="font:10px Droid Sans,Trebuchet MS,Arial,Helvetica,sans-serif;stroke:none;fill:#000000">0.7</text><text x="1125" y="398.625" text-anchor="middle" style="font:10px Droid Sans,Trebuchet MS,Arial,Helvetica,sans-serif;stroke:none;fill:#000000">0.8</text><text x="1187.5" y="398.625" text-anchor="middle" style="font:10px Droid Sans,Trebuchet MS,Arial,Helvetica,sans-serif;stroke:none;fill:#000000">0.9</text></g></svg>