<?xml version="1.0" standalone="no"?><!DOCTYPE svg PUBLIC "-//W3C//DTD SVG 1.1//EN" "http://www.w3.org/Graphics/SVG/1.1/DTD/svg11.dtd"><svg xmlns="http://www.w3.org/2000/svg" viewBox="0 0 1300 800" version="1.1"><clipPath id="box"><rect x="0" y="0" width="1300" height="800" style="fill:none;stroke:none;" /></clipPath><g clip-path="url(#box)"><rect x="0.00" y="0.00" width="1300.00" height="800.00" style="fill:#FFFFFF;stroke:none;" /><path d="M0.00 760.00 L1300.00 760.00 M0.00 720.00 L1300.00 720.00 M0.00 680.00 L1300.00 680.00 M0.00 640.00 L1300.00 640.00 M0.00 600.00 L1300.00 600.00 M0.00 560.00 L1300.00 560.00 M0.00 520.00 L1300.00 520.00 M0.00 480.00 L1300.00 480.00 M0.00 440.00 L1300.00 440.00 M0.00 400.00 L1300.00 400.00 M0.00 359.00 L1300.00 359.00 M0.00 319.00 L1300.00 319.00 M0.00 279.00 L1300.00 279.00 M0.00 239.00 L1300.00 239.00 M0.00 199.00 L1300.00 199.00 M0.00 159.00 L1300.00 159.00 M0.00 119.00 L1300.00 119.00 M0.00 79.00 L1300.00 79.00 M0.00 39.00 L1300.00 39.00 M64.00 0.00 L64.00 800.00 M129.00 0.00 L129.00 800.00 M194.00 0.00 L194.00 800.00 M259.00 0.00 L259.00 800.00 M324.00 0.00 L324.00 800.00 M389.00 0.00 L389.00 800.00 M454.00 0.00 L454.00 800.00 M519.00 0.00 L519.00 800.00 M584.00 0.00 L584.00 800.00 M649.00 0.00 L649.00 800.00 M715.00 0.00 L715.00 800.00 M780.00 0.00 L780.00 800.00 M845.00 0.00 L845.00 800.00 M910.00 0.00 L910.00 800.00 M975.00 0.00 L975.00 800.00 M1040.00 0.00 L1040.00 800.00 M1105.00 0.00 L1105.00 800.00 M1170.00 0.00 L1170.00 800.00 M1235.00 0.00 L1235.00 800.00 " style="fill:none;stroke:#D0D0D0;stroke-width:1;" /><path d="M650.00 0.00 L650.00 800.00 " style="fill:none;stroke:#000000;stroke-width:1;" /><path d="M637.00 800.00 L663.00 800.00 M637.00 760.00 L663.00 760.00 M637.00 720.00 L663.00 720.00 M637.00 680.00 L663.00 680.00 M637.00 640.00 L663.00 640.00 M637.00 600.00 L663.00 600.00 M637.00 560.00 L663.00 560.00 M637.00 520.00 L663.00 520.00 M637.00 480.00 L663.00 480.00 M637.00 440.00 L663.00 440.00 M637.00 400.00 L663.00 400.00 M637.00 360.00 L663.00 360.00 M637.00 320.00 L663.00 320.00 M637.00 280.00 L663.00 280.00 M637.00 240.00 L663.00 240.00 M637.00 200.00 L663.00 200.00 M637.00 160.00 L663.00 160.00 M637.00 120.00 L663.00 120.00 M637.00 80.00 L663.00 80.00 M637.00 40.00 L663.00 40.00 " style="fill:none;stroke:#000000;stroke-width:1;" /><path d="M0.00 400.00 L1300.00 400.00 " style="fill:none;stroke:#000000;stroke-width:1;" /><path d="M-0.00 387.00 L-0.00 413.00 M65.00 387.00 L65.00 413.00 M130.00 387.00 L130.00 413.00 M195.00 387.00 L195.00 413.00 M260.00 387.00 L260.00 413.00 M325.00 387.00 L325.00 413.00 M390.00 387.00 L390.00 413.00 M455.00 387.00 L455.00 413.00 M520.00 387.00 L520.00 413.00 M585.00 387.00 L585.00 413.00 M650.00 387.00 L650.00 413.00 M715.00 387.00 L715.00 413.00 M780.00 387.00 L780.00 413.00 M845.00 387.00 L845.00 413.00 M910.00 387.00 L910.00 413.00 M975.00 387.00 L975.00 413.00 M1040.00 387.00 L1040.00 413.00 M1105.00 387.00 L1105.00 413.00 M1170.00 387.00 L1170.00 413.00 M1235.00 387.00 L1235.00 413.00 " style="fill:none;stroke:#000000;stroke-width:1;" /><text x="666.25" y="762.5000000000006" text-anchor="start" style="font:10px Droid Sans,Trebuchet MS,Arial,Helvetica,sans-serif;stroke:none;fill:#000000">-0.9</text><text x="666.25" y="722.5000000000006" text-anchor="start" style="font:10px Droid Sans,Trebuchet MS,Arial,Helvetica,sans-serif;stroke:none;fill:#000000">-0.8</text><text x="666.25" y="682.5000000000005" text-anchor="start" style="font:10px Droid Sans,Trebuchet MS,Arial,Helvetica,sans-serif;stroke:none;fill:#000000">-0.7</text><text x="666.25" y="642.5000000000003" text-anchor="start" style="font:10px Droid Sans,Trebuchet MS,Arial,Helvetica,sans-serif;stroke:none;fill:#000000">-0.6</text><text x="666.25" y="602.5000000000005" text-anchor="start" style="font:10px Droid Sans,Trebuchet MS,Arial,Helvetica,sans-serif;stroke:none;fill:#000000">-0.5</text><text x="666.25" y="562.5000000000003" text-anchor="start" style="font:10px Droid Sans,Trebuchet MS,Arial,Helvetica,sans-serif;stroke:none;fill:#000000">-0.4</text><text x="666.25" y="522.5000000000002" text-anchor="start" style="font:10px Droid Sans,Trebuchet MS,Arial,Helvetica,sans-serif;stroke:none;fill:#000000">-0.3</text><text x="666.25" y="482.50000000000017" text-anchor="start" style="font:10px Droid Sans,Trebuchet MS,Arial,Helvetica,sans-serif;stroke:none;fill:#000000">-0.2</text><text x="666.25" y="442.5000000000001" text-anchor="start" style="font:10px Droid Sans,Trebuchet MS,Arial,Helvetica,sans-serif;stroke:none;fill:#000000">-0.1</text><text x="666.25" y="402.5000000000001" text-anchor="start" style="font:10px Droid Sans,Trebuchet MS,Arial,Helvetica,sans-serif;stroke:none;fill:#000000">0</text><text x="666.25" y="362.5" text-anchor="start" style="font:10px Droid Sans,Trebuchet MS,Arial,Helvetica,sans-serif;stroke:none;fill:#000000">0.1</text><text x="666.25" y="322.49999999999994" text-anchor="start" style="font:10px Droid Sans,Trebuchet MS,Arial,Helvetica,sans-serif;stroke:none;fill:#000000">0.2</text><text x="666.25" y="282.4999999999999" text-anchor="start" style="font:10px Droid Sans,Trebuchet MS,Arial,Helvetica,sans-serif;stroke:none;fill:#000000">0.3</text><text x="666.25" y="242.49999999999977" text-anchor="start" style="font:10px Droid Sans,Trebuchet MS,Arial,Helvetica,sans-serif;stroke:none;fill:#000000">0.4</text><text x="666.25" y="202.49999999999974" text-anchor="start" style="font:10px Droid Sans,Trebuchet MS,Arial,Helvetica,sans-serif;stroke:none;fill:#000000">0.5</text><text x="666.25" y="162.4999999999997" text-anchor="start" style="font:10px Droid Sans,Trebuchet MS,Arial,Helvetica,sans-serif;stroke:none;fill:#000000">0.6</text><text x="666.25" y="122.49999999999962" text-anchor="start" style="font:10px Droid Sans,Trebuchet MS,Arial,Helvetica,sans-serif;stroke:none;fill:#000000">0.7</text><text x="666.25" y="82.49999999999957" text-anchor="start" style="font:10px Droid Sans,Trebuchet MS,Arial,Helvetica,sans-serif;stroke:none;fill:#000000">0.8</text><text x="666.25" y="42.49999999999952" text-anchor="start" style="font:10px Droid Sans,Trebuchet MS,Arial,Helvetica,sans-serif;stroke:none;fill:#000000">0.9</text><text x="64.99999999999908" y="424.25" text-anchor="middle" style="font:10px Droid Sans,Trebuchet MS,Arial,Helvetica,sans-serif;stroke:none;fill:#000000">-0.9</text><text x="129.99999999999915" y="424.25" text-anchor="middle" style="font:10px Droid Sans,Trebuchet MS,Arial,Helvetica,sans-serif;stroke:none;fill:#000000">-0.8</text><text x="194.99999999999923" y="424.25" text-anchor="middle" style="font:10px Droid Sans,Trebuchet MS,Arial,Helvetica,sans-serif;stroke:none;fill:#000000">-0.7</text><text x="259.9999999999993" y="424.25" text-anchor="middle" style="font:10px Droid Sans,Trebuchet MS,Arial,Helvetica,sans-serif;stroke:none;fill:#000000">-0.6</text><text x="324.99999999999943" y="424.25" text-anchor="middle" style="font:10px Droid Sans,Trebuchet MS,Arial,Helvetica,sans-serif;stroke:none;fill:#000000">-0.5</text><text x="389.9999999999995" y="424.25" text-anchor="middle" style="font:10px Droid Sans,Trebuchet MS,Arial,Helvetica,sans-serif;stroke:none;fill:#000000">-0.4</text><text x="454.9999999999996" y="424.25" text-anchor="middle" style="font:10px Droid Sans,Trebuchet MS,Arial,Helvetica,sans-serif;stroke:none;fill:#000000">-0.3</text><text x="519.9999999999997" y="424.25" text-anchor="middle" style="font:10px Droid Sans,Trebuchet MS,Arial,Helvetica,sans-serif;stroke:none;fill:#000000">-0.2</text><text x="584.9999999999999" y="424.25" text-anchor="middle" style="font:10px Droid Sans,Trebuchet MS,Arial,Helvetica,sans-serif;stroke:none;fill:#000000">-0.1</text><text x="649.9999999999999" y="424.25" text-anchor="middle" style="font:10px Droid Sans,Trebuchet MS,Arial,Helvetica,sans-serif;stroke:none;fill:#000000">0</text><text x="715.0000000000001" y="424.25" text-anchor="middle" style="font:10px Droid Sans,Trebuchet MS,Arial,Helvetica,sans-serif;stroke:none;fill:#000000">0.1</text><text x="780.0000000000001" y="424.25" text-anchor="middle" style="font:10px Droid Sans,Trebuchet MS,Arial,Helvetica,sans-serif;stroke:none;fill:#000000">0.2</text><text x="845.0000000000002" y="424.25" text-anchor="middle" style="font:10px Droid Sans,Trebuchet MS,Arial,Helvetica,sans-serif;stroke:none;fill:#000000">0.3</text><text x="910.0000000000003" y="424.25" text-anchor="middle" style="font:10px Droid Sans,Trebuchet MS,Arial,Helvetica,sans-serif;stroke:none;fill:#000000">0.4</text><text x="975.0000000000005" y="424.25" text-anchor="middle" style="font:10px Droid Sans,Trebuchet MS,Arial,Helvetica,sans-serif;stroke:none;fill:#000000">0.5</text><text x="1040.0000000000005" y="424.25" text-anchor="middle" style="font:10px Droid Sans,Trebuchet MS,Arial,Helvetica,sans-serif;stroke:none;fill:#000000">0.6</text><text x="1105.0000000000007" y="424.25" text-anchor="middle" style="font:10px Droid Sans,Trebuchet MS,Arial,Helvetica,sans-serif;stroke:none;fill:#000000">0.7</text><text x="1170.0000000000007" y="424.25" text-anchor="middle" style="font:10px Droid Sans,Trebuchet MS,Arial,Helvetica,sans-serif;stroke:none;fill:#000000">0.8</text><text x="1235.0000000000007" y="424.25" text-anchor="middle" style="font:10px Droid Sans,Trebuchet MS,Arial,Helvetica,sans-serif;stroke:none;fill:#000000">0.9</text><rect x="75.14" y="379.80" width="5.00" height="5.00" style="fill:#000000;stroke:none;" /><rect x="231.17" y="30.67" width="5.00" height="5.00" style="fill:#000000;stroke:none;" /><rect x="1172.34" y="774.46" width="5.00" height="5.00" style="fill:#000000;stroke:none;" /><rect x="555.76" y="288.52" width="5.00" height="5.00" style="fill:#000000;stroke:none;" /><rect x="517.30" y="237.12" width="5.00" height="5.00" style="fill:#000000;stroke:none;" /><rect x="1152.81" y="218.47" width="5.00" height="5.00" style="fill:#000000;stroke:none;" /><rect x="324.49" y="728.86" width="5.00" height="5.00" style="fill:#000000;stroke:none;" /><rect x="791.28" y="272.17" width="5.00" height="5.00" style="fill:#000000;stroke:none;" /><rect x="834.50" y="45.93" width="5.00" height="5.00" style="fill:#000000;stroke:none;" /><rect x="197.37" y="554.47" width="5.00" height="5.00" style="fill:#000000;stroke:none;" /><rect x="183.20" y="738.68" width="5.00" height="5.00" style="fill:#000000;stroke:none;" /><rect x="326.37" y="381.98" width="5.00" height="5.00" style="fill:#000000;stroke:none;" /><rect x="589.63" y="520.63" width="5.00" height="5.00" style="fill:#000000;stroke:none;" /><rect x="788.67" y="607.49" width="5.00" height="5.00" style="fill:#000000;stroke:none;" /><rect x="826.60" y="19.79" width="5.00" height="5.00" style="fill:#000000;stroke:none;" /><rect x="348.30" y="240.62" width="5.00" height="5.00" style="fill:#000000;stroke:none;" /><rect x="642.16" y="438.94" width="5.00" height="5.00" style="fill:#000000;stroke:none;" /><rect x="850.65" y="478.92" width="5.00" height="5.00" style="fill:#000000;stroke:none;" /><rect x="619.72" y="730.06" width="5.00" height="5.00" style="fill:#000000;stroke:none;" /><rect x="44.41" y="95.83" width="5.00" height="5.00" style="fill:#000000;stroke:none;" /></g></svg>