<?xml version="1.0" standalone="no"?><!DOCTYPE svg PUBLIC "-//W3C//DTD SVG 1.1//EN" "http://www.w3.org/Graphics/SVG/1.1/DTD/svg11.dtd"><svg xmlns="http://www.w3.org/2000/svg" viewBox="0 0 1250 750" version="1.1"><clipPath id="box"><rect x="0" y="0" width="1250" height="750" style="fill:none;stroke:none;" /></clipPath><g clip-path="url(#box)"><rect x="0.00" y="0.00" width="1250.00" height="750.00" style="fill:#FFFFFF;stroke:none;" /><path d="M0.00 646.00 L1250.00 646.00 M0.00 94.00 L1250.00 94.00 M138.00 0.00 L138.00 750.00 M952.00 0.00 L952.00 750.00 " style="fill:none;stroke:#D0D0D0;stroke-width:1;" /><path d="M0.00 0.00 L0.00 750.00 " style="fill:none;stroke:#000000;stroke-width:1;" /><path d="M-12.50 1197.62 L12.50 1197.62 M-12.50 646.15 L12.50 646.15 M-12.50 94.68 L12.50 94.68 " style="fill:none;stroke:#000000;stroke-width:1;" /><path d="M0.00 750.00 L1250.00 750.00 " style="fill:none;stroke:#000000;stroke-width:1;" /><path d="M-675.55 737.50 L-675.55 762.50 M138.25 737.50 L138.25 762.50 M952.05 737.50 L952.05 762.50 " style="fill:none;stroke:#000000;stroke-width:1;" /><text x="15.625" y="648.647058823529" text-anchor="start" style="font:10px Droid Sans,Trebuchet MS,Arial,Helvetica,sans-serif;stroke:none;fill:#000000">0.8</text><text x="15.625" y="97.1764705882356" text-anchor="start" style="font:10px Droid Sans,Trebuchet MS,Arial,Helvetica,sans-serif;stroke:none;fill:#000000">0.9</text><text x="138.25280448717933" y="741.125" text-anchor="middle" style="font:10px Droid Sans,Trebuchet MS,Arial,Helvetica,sans-serif;stroke:none;fill:#000000">0.2</text><text x="952.0548878205132" y="741.125" text-anchor="middle" style="font:10px Droid Sans,Trebuchet MS,Arial,Helvetica,sans-serif;stroke:none;fill:#000000">0.3</text><rect x="843.59" y="201.95" width="5.00" height="5.00" style="fill:#000000;stroke:none;" /><rect x="827.37" y="204.59" width="5.00" height="5.00" style="fill:#000000;stroke:none;" /><rect x="811.14" y="207.22" width="5.00" height="5.00" style="fill:#000000;stroke:none;" /><rect x="794.92" y="209.86" width="5.00" height="5.00" style="fill:#000000;stroke:none;" /><rect x="778.69" y="212.50" width="5.00" height="5.00" style="fill:#000000;stroke:none;" /><rect x="762.46" y="215.13" width="5.00" height="5.00" style="fill:#000000;stroke:none;" /><rect x="746.24" y="217.77" width="5.00" height="5.00" style="fill:#000000;stroke:none;" /><rect x="730.01" y="220.41" width="5.00" height="5.00" style="fill:#000000;stroke:none;" /><rect x="713.79" y="223.04" width="5.00" height="5.00" style="fill:#000000;stroke:none;" /><rect x="697.56" y="225.68" width="5.00" height="5.00" style="fill:#000000;stroke:none;" /><rect x="681.33" y="228.32" width="5.00" height="5.00" style="fill:#000000;stroke:none;" /><rect x="665.11" y="230.95" width="5.00" height="5.00" style="fill:#000000;stroke:none;" /><rect x="648.88" y="233.59" width="5.00" height="5.00" style="fill:#000000;stroke:none;" /><rect x="632.66" y="236.22" width="5.00" height="5.00" style="fill:#000000;stroke:none;" /><rect x="616.43" y="238.86" width="5.00" height="5.00" style="fill:#000000;stroke:none;" /><rect x="600.20" y="241.50" width="5.00" height="5.00" style="fill:#000000;stroke:none;" /><rect x="583.98" y="244.13" width="5.00" height="5.00" style="fill:#000000;stroke:none;" /><rect x="567.75" y="246.77" width="5.00" height="5.00" style="fill:#000000;stroke:none;" /><rect x="551.53" y="249.41" width="5.00" height="5.00" style="fill:#000000;stroke:none;" /><rect x="535.30" y="252.04" width="5.00" height="5.00" style="fill:#000000;stroke:none;" /></g></svg>