<?xml version="1.0" standalone="no"?><!DOCTYPE svg PUBLIC "-//W3C//DTD SVG 1.1//EN" "http://www.w3.org/Graphics/SVG/1.1/DTD/svg11.dtd"><svg xmlns="http://www.w3.org/2000/svg" viewBox="0 0 1300 750" version="1.1"><clipPath id="box"><rect x="0" y="0" width="1300" height="750" style="fill:none;stroke:none;" /></clipPath><g clip-path="url(#box)"><rect x="0.00" y="0.00" width="1300.00" height="750.00" style="fill:#FFFFFF;stroke:none;" /><path d="M0.00 741.00 L1300.00 741.00 M0.00 638.00 L1300.00 638.00 M0.00 534.00 L1300.00 534.00 M0.00 431.00 L1300.00 431.00 M0.00 327.00 L1300.00 327.00 M0.00 224.00 L1300.00 224.00 M0.00 120.00 L1300.00 120.00 M0.00 17.00 L1300.00 17.00 M42.00 0.00 L42.00 750.00 M153.00 0.00 L153.00 750.00 M263.00 0.00 L263.00 750.00 M374.00 0.00 L374.00 750.00 M484.00 0.00 L484.00 750.00 M594.00 0.00 L594.00 750.00 M705.00 0.00 L705.00 750.00 M815.00 0.00 L815.00 750.00 M925.00 0.00 L925.00 750.00 M1036.00 0.00 L1036.00 750.00 M1146.00 0.00 L1146.00 750.00 M1257.00 0.00 L1257.00 750.00 " style="fill:none;stroke:#D0D0D0;stroke-width:1;" /><path d="M925.96 0.00 L925.96 750.00 " style="fill:none;stroke:#000000;stroke-width:1;" /><path d="M912.96 845.47 L938.96 845.47 M912.96 741.95 L938.96 741.95 M912.96 638.44 L938.96 638.44 M912.96 534.93 L938.96 534.93 M912.96 431.42 L938.96 431.42 M912.96 327.90 L938.96 327.90 M912.96 224.39 L938.96 224.39 M912.96 120.88 L938.96 120.88 M912.96 17.37 L938.96 17.37 " style="fill:none;stroke:#000000;stroke-width:1;" /><path d="M0.00 17.37 L1300.00 17.37 " style="fill:none;stroke:#000000;stroke-width:1;" /><path d="M-67.49 4.37 L-67.49 30.37 M42.90 4.37 L42.90 30.37 M153.28 4.37 L153.28 30.37 M263.66 4.37 L263.66 30.37 M374.04 4.37 L374.04 30.37 M484.43 4.37 L484.43 30.37 M594.81 4.37 L594.81 30.37 M705.19 4.37 L705.19 30.37 M815.57 4.37 L815.57 30.37 M925.96 4.37 L925.96 30.37 M1036.34 4.37 L1036.34 30.37 M1146.72 4.37 L1146.72 30.37 M1257.10 4.37 L1257.10 30.37 " style="fill:none;stroke:#000000;stroke-width:1;" /><text x="942.2065588335989" y="744.4548340070617" text-anchor="start" style="font:10px Droid Sans,Trebuchet MS,Arial,Helvetica,sans-serif;stroke:none;fill:#000000">-0.07</text><text x="942.2065588335989" y="640.9422198439656" text-anchor="start" style="font:10px Droid Sans,Trebuchet MS,Arial,Helvetica,sans-serif;stroke:none;fill:#000000">-0.06</text><text x="942.2065588335989" y="537.4296056808696" text-anchor="start" style="font:10px Droid Sans,Trebuchet MS,Arial,Helvetica,sans-serif;stroke:none;fill:#000000">-0.05</text><text x="942.2065588335989" y="433.9169915177735" text-anchor="start" style="font:10px Droid Sans,Trebuchet MS,Arial,Helvetica,sans-serif;stroke:none;fill:#000000">-0.04</text><text x="942.2065588335989" y="330.40437735467737" text-anchor="start" style="font:10px Droid Sans,Trebuchet MS,Arial,Helvetica,sans-serif;stroke:none;fill:#000000">-0.03</text><text x="942.2065588335989" y="226.89176319158128" text-anchor="start" style="font:10px Droid Sans,Trebuchet MS,Arial,Helvetica,sans-serif;stroke:none;fill:#000000">-0.02</text><text x="942.2065588335989" y="123.37914902848523" text-anchor="start" style="font:10px Droid Sans,Trebuchet MS,Arial,Helvetica,sans-serif;stroke:none;fill:#000000">-0.01</text><text x="942.2065588335989" y="19.866534865389173" text-anchor="start" style="font:10px Droid Sans,Trebuchet MS,Arial,Helvetica,sans-serif;stroke:none;fill:#000000">0</text><text x="42.89557056608242" y="41.61653486538921" text-anchor="middle" style="font:10px Droid Sans,Trebuchet MS,Arial,Helvetica,sans-serif;stroke:none;fill:#000000">-0.16</text><text x="153.27819409952193" y="41.61653486538921" text-anchor="middle" style="font:10px Droid Sans,Trebuchet MS,Arial,Helvetica,sans-serif;stroke:none;fill:#000000">-0.14</text><text x="263.6608176329615" y="41.61653486538921" text-anchor="middle" style="font:10px Droid Sans,Trebuchet MS,Arial,Helvetica,sans-serif;stroke:none;fill:#000000">-0.12</text><text x="374.0434411664011" y="41.61653486538921" text-anchor="middle" style="font:10px Droid Sans,Trebuchet MS,Arial,Helvetica,sans-serif;stroke:none;fill:#000000">-0.1</text><text x="484.42606469984065" y="41.61653486538921" text-anchor="middle" style="font:10px Droid Sans,Trebuchet MS,Arial,Helvetica,sans-serif;stroke:none;fill:#000000">-0.08</text><text x="594.8086882332802" y="41.61653486538921" text-anchor="middle" style="font:10px Droid Sans,Trebuchet MS,Arial,Helvetica,sans-serif;stroke:none;fill:#000000">-0.06</text><text x="705.1913117667198" y="41.61653486538921" text-anchor="middle" style="font:10px Droid Sans,Trebuchet MS,Arial,Helvetica,sans-serif;stroke:none;fill:#000000">-0.04</text><text x="815.5739353001594" y="41.61653486538921" text-anchor="middle" style="font:10px Droid Sans,Trebuchet MS,Arial,Helvetica,sans-serif;stroke:none;fill:#000000">-0.02</text><text x="925.9565588335989" y="41.61653486538921" text-anchor="middle" style="font:10px Droid Sans,Trebuchet MS,Arial,Helvetica,sans-serif;stroke:none;fill:#000000">0</text><text x="1036.3391823670386" y="41.61653486538921" text-anchor="middle" style="font:10px Droid Sans,Trebuchet MS,Arial,Helvetica,sans-serif;stroke:none;fill:#000000">0.02</text><text x="1146.721805900478" y="41.61653486538921" text-anchor="middle" style="font:10px Droid Sans,Trebuchet MS,Arial,Helvetica,sans-serif;stroke:none;fill:#000000">0.04</text><text x="1257.1044294339179" y="41.61653486538921" text-anchor="middle" style="font:10px Droid Sans,Trebuchet MS,Arial,Helvetica,sans-serif;stroke:none;fill:#000000">0.06</text><path d="" style="fill:none;stroke:#ff0000;stroke-width:1;" /><rect x="923.96" y="15.37" width="5.00" height="5.00" style="fill:#000000;stroke:none;" /><rect x="884.38" y="41.06" width="5.00" height="5.00" style="fill:#000000;stroke:none;" /><rect x="844.80" y="66.75" width="5.00" height="5.00" style="fill:#000000;stroke:none;" /><rect x="805.23" y="92.44" width="5.00" height="5.00" style="fill:#000000;stroke:none;" /><rect x="765.65" y="118.14" width="5.00" height="5.00" style="fill:#000000;stroke:none;" /><rect x="726.08" y="143.83" width="5.00" height="5.00" style="fill:#000000;stroke:none;" /><rect x="686.50" y="169.52" width="5.00" height="5.00" style="fill:#000000;stroke:none;" /><rect x="646.92" y="195.21" width="5.00" height="5.00" style="fill:#000000;stroke:none;" /><rect x="607.35" y="220.90" width="5.00" height="5.00" style="fill:#000000;stroke:none;" /><rect x="567.77" y="246.60" width="5.00" height="5.00" style="fill:#000000;stroke:none;" /><rect x="528.20" y="272.29" width="5.00" height="5.00" style="fill:#000000;stroke:none;" /><rect x="488.62" y="297.98" width="5.00" height="5.00" style="fill:#000000;stroke:none;" /><rect x="449.04" y="323.67" width="5.00" height="5.00" style="fill:#000000;stroke:none;" /><rect x="409.47" y="349.36" width="5.00" height="5.00" style="fill:#000000;stroke:none;" /><rect x="369.89" y="375.06" width="5.00" height="5.00" style="fill:#000000;stroke:none;" /><rect x="330.32" y="400.75" width="5.00" height="5.00" style="fill:#000000;stroke:none;" /><rect x="290.74" y="426.44" width="5.00" height="5.00" style="fill:#000000;stroke:none;" /><rect x="251.16" y="452.13" width="5.00" height="5.00" style="fill:#000000;stroke:none;" /><rect x="211.59" y="477.83" width="5.00" height="5.00" style="fill:#000000;stroke:none;" /><rect x="172.01" y="503.52" width="5.00" height="5.00" style="fill:#000000;stroke:none;" /><rect x="132.43" y="529.21" width="5.00" height="5.00" style="fill:#000000;stroke:none;" /></g></svg>