<?xml version="1.0" standalone="no"?><!DOCTYPE svg PUBLIC "-//W3C//DTD SVG 1.1//EN" "http://www.w3.org/Graphics/SVG/1.1/DTD/svg11.dtd"><svg xmlns="http://www.w3.org/2000/svg" viewBox="0 0 1000 750" version="1.1"><clipPath id="box"><rect x="0" y="0" width="1000" height="750" style="fill:none;stroke:none;" /></clipPath><g clip-path="url(#box)"><rect x="0.00" y="0.00" width="1000.00" height="750.00" style="fill:#FFFFFF;stroke:none;" /><path d="M0.00 735.00 L1000.00 735.00 M0.00 675.00 L1000.00 675.00 M0.00 615.00 L1000.00 615.00 M0.00 555.00 L1000.00 555.00 M0.00 495.00 L1000.00 495.00 M0.00 435.00 L1000.00 435.00 M0.00 375.00 L1000.00 375.00 M0.00 315.00 L1000.00 315.00 M0.00 255.00 L1000.00 255.00 M0.00 195.00 L1000.00 195.00 M0.00 134.00 L1000.00 134.00 M0.00 75.00 L1000.00 75.00 M0.00 14.00 L1000.00 14.00 M19.00 0.00 L19.00 750.00 M99.00 0.00 L99.00 750.00 M179.00 0.00 L179.00 750.00 M259.00 0.00 L259.00 750.00 M339.00 0.00 L339.00 750.00 M419.00 0.00 L419.00 750.00 M499.00 0.00 L499.00 750.00 M580.00 0.00 L580.00 750.00 M659.00 0.00 L659.00 750.00 M740.00 0.00 L740.00 750.00 M820.00 0.00 L820.00 750.00 M899.00 0.00 L899.00 750.00 M980.00 0.00 L980.00 750.00 " style="fill:none;stroke:#D0D0D0;stroke-width:1;" /><path d="M500.00 0.00 L500.00 750.00 " style="fill:none;stroke:#000000;stroke-width:1;" /><path d="M490.00 795.00 L510.00 795.00 M490.00 735.00 L510.00 735.00 M490.00 675.00 L510.00 675.00 M490.00 615.00 L510.00 615.00 M490.00 555.00 L510.00 555.00 M490.00 495.00 L510.00 495.00 M490.00 435.00 L510.00 435.00 M490.00 375.00 L510.00 375.00 M490.00 315.00 L510.00 315.00 M490.00 255.00 L510.00 255.00 M490.00 195.00 L510.00 195.00 M490.00 135.00 L510.00 135.00 M490.00 75.00 L510.00 75.00 M490.00 15.00 L510.00 15.00 " style="fill:none;stroke:#000000;stroke-width:1;" /><path d="M0.00 375.00 L1000.00 375.00 " style="fill:none;stroke:#000000;stroke-width:1;" /><path d="M-60.00 365.00 L-60.00 385.00 M20.00 365.00 L20.00 385.00 M100.00 365.00 L100.00 385.00 M180.00 365.00 L180.00 385.00 M260.00 365.00 L260.00 385.00 M340.00 365.00 L340.00 385.00 M420.00 365.00 L420.00 385.00 M500.00 365.00 L500.00 385.00 M580.00 365.00 L580.00 385.00 M660.00 365.00 L660.00 385.00 M740.00 365.00 L740.00 385.00 M820.00 365.00 L820.00 385.00 M900.00 365.00 L900.00 385.00 M980.00 365.00 L980.00 385.00 " style="fill:none;stroke:#000000;stroke-width:1;" /><text x="512.5" y="737.5000000000001" text-anchor="start" style="font:10px Droid Sans,Trebuchet MS,Arial,Helvetica,sans-serif;stroke:none;fill:#000000">-1.2</text><text x="512.5" y="677.5000000000002" text-anchor="start" style="font:10px Droid Sans,Trebuchet MS,Arial,Helvetica,sans-serif;stroke:none;fill:#000000">-1</text><text x="512.5" y="617.5000000000001" text-anchor="start" style="font:10px Droid Sans,Trebuchet MS,Arial,Helvetica,sans-serif;stroke:none;fill:#000000">-0.8</text><text x="512.5" y="557.5000000000001" text-anchor="start" style="font:10px Droid Sans,Trebuchet MS,Arial,Helvetica,sans-serif;stroke:none;fill:#000000">-0.6</text><text x="512.5" y="497.50000000000017" text-anchor="start" style="font:10px Droid Sans,Trebuchet MS,Arial,Helvetica,sans-serif;stroke:none;fill:#000000">-0.4</text><text x="512.5" y="437.50000000000006" text-anchor="start" style="font:10px Droid Sans,Trebuchet MS,Arial,Helvetica,sans-serif;stroke:none;fill:#000000">-0.2</text><text x="512.5" y="377.50000000000006" text-anchor="start" style="font:10px Droid Sans,Trebuchet MS,Arial,Helvetica,sans-serif;stroke:none;fill:#000000">0</text><text x="512.5" y="317.50000000000006" text-anchor="start" style="font:10px Droid Sans,Trebuchet MS,Arial,Helvetica,sans-serif;stroke:none;fill:#000000">0.2</text><text x="512.5" y="257.50000000000006" text-anchor="start" style="font:10px Droid Sans,Trebuchet MS,Arial,Helvetica,sans-serif;stroke:none;fill:#000000">0.4</text><text x="512.5" y="197.5" text-anchor="start" style="font:10px Droid Sans,Trebuchet MS,Arial,Helvetica,sans-serif;stroke:none;fill:#000000">0.6</text><text x="512.5" y="137.49999999999997" text-anchor="start" style="font:10px Droid Sans,Trebuchet MS,Arial,Helvetica,sans-serif;stroke:none;fill:#000000">0.8</text><text x="512.5" y="77.49999999999996" text-anchor="start" style="font:10px Droid Sans,Trebuchet MS,Arial,Helvetica,sans-serif;stroke:none;fill:#000000">1</text><text x="512.5" y="17.49999999999995" text-anchor="start" style="font:10px Droid Sans,Trebuchet MS,Arial,Helvetica,sans-serif;stroke:none;fill:#000000">1.2</text><text x="19.99999999999976" y="395.5" text-anchor="middle" style="font:10px Droid Sans,Trebuchet MS,Arial,Helvetica,sans-serif;stroke:none;fill:#000000">-1.2</text><text x="99.99999999999977" y="395.5" text-anchor="middle" style="font:10px Droid Sans,Trebuchet MS,Arial,Helvetica,sans-serif;stroke:none;fill:#000000">-1</text><text x="179.99999999999977" y="395.5" text-anchor="middle" style="font:10px Droid Sans,Trebuchet MS,Arial,Helvetica,sans-serif;stroke:none;fill:#000000">-0.8</text><text x="259.9999999999998" y="395.5" text-anchor="middle" style="font:10px Droid Sans,Trebuchet MS,Arial,Helvetica,sans-serif;stroke:none;fill:#000000">-0.6</text><text x="339.99999999999983" y="395.5" text-anchor="middle" style="font:10px Droid Sans,Trebuchet MS,Arial,Helvetica,sans-serif;stroke:none;fill:#000000">-0.4</text><text x="419.9999999999999" y="395.5" text-anchor="middle" style="font:10px Droid Sans,Trebuchet MS,Arial,Helvetica,sans-serif;stroke:none;fill:#000000">-0.2</text><text x="499.9999999999999" y="395.5" text-anchor="middle" style="font:10px Droid Sans,Trebuchet MS,Arial,Helvetica,sans-serif;stroke:none;fill:#000000">0</text><text x="580" y="395.5" text-anchor="middle" style="font:10px Droid Sans,Trebuchet MS,Arial,Helvetica,sans-serif;stroke:none;fill:#000000">0.2</text><text x="659.9999999999999" y="395.5" text-anchor="middle" style="font:10px Droid Sans,Trebuchet MS,Arial,Helvetica,sans-serif;stroke:none;fill:#000000">0.4</text><text x="740" y="395.5" text-anchor="middle" style="font:10px Droid Sans,Trebuchet MS,Arial,Helvetica,sans-serif;stroke:none;fill:#000000">0.6</text><text x="820.0000000000001" y="395.5" text-anchor="middle" style="font:10px Droid Sans,Trebuchet MS,Arial,Helvetica,sans-serif;stroke:none;fill:#000000">0.8</text><text x="899.9999999999999" y="395.5" text-anchor="middle" style="font:10px Droid Sans,Trebuchet MS,Arial,Helvetica,sans-serif;stroke:none;fill:#000000">1</text><text x="980.0000000000001" y="395.5" text-anchor="middle" style="font:10px Droid Sans,Trebuchet MS,Arial,Helvetica,sans-serif;stroke:none;fill:#000000">1.2</text><path d="M900.00 375.00 L900.00 375.00 L899.98 372.00 L899.92 369.00 L899.82 366.00 L899.68 363.00 L899.50 360.01 L899.28 357.01 L899.02 354.02 L898.72 351.03 L898.38 348.04 L898.00 345.05 L897.58 342.07 L897.12 339.09 L896.62 336.11 L896.09 333.14 L895.51 330.17 L894.89 327.20 L894.23 324.25 L893.54 321.29 L892.80 318.34 L892.03 315.40 L891.21 312.46 L890.36 309.53 L889.47 306.61 L888.54 303.69 L887.56 300.78 L886.56 297.88 L885.51 294.98 L884.42 292.09 L883.30 289.21 L882.13 286.34 L880.93 283.48 L879.69 280.63 L878.42 277.79 L877.10 274.95 L875.75 272.13 L874.36 269.32 L872.93 266.52 L871.47 263.72 L869.96 260.94 L868.42 258.17 L866.85 255.42 L865.24 252.67 L863.59 249.94 L861.90 247.22 L860.18 244.51 L858.42 241.82 L856.63 239.13 L854.80 236.47 L852.93 233.81 L851.03 231.17 L849.10 228.55 L847.13 225.94 L845.12 223.34 L843.08 220.76 L841.01 218.19 L838.90 215.64 L836.76 213.11 L834.59 210.59 L832.38 208.09 L830.13 205.61 L827.86 203.14 L825.55 200.69 L823.21 198.26 L820.84 195.84 L818.43 193.44 L816.00 191.06 L813.53 188.70 L811.03 186.36 L808.50 184.04 L805.94 181.73 L803.34 179.45 L800.72 177.18 L798.07 174.94 L795.39 172.71 L792.68 170.51 L789.93 168.32 L787.16 166.16 L784.37 164.02 L781.54 161.89 L778.68 159.79 L775.80 157.71 L772.89 155.66 L769.95 153.62 L766.99 151.61 L763.99 149.62 L760.97 147.65 L757.93 145.70 L754.86 143.78 L751.76 141.88 L748.64 140.00 L745.50 138.15 L742.33 136.32 L739.13 134.51 L735.92 132.73 L732.67 130.98 L729.41 129.24 L726.12 127.53 L722.81 125.85 L719.48 124.19 L716.12 122.56 L712.74 120.95 L709.35 119.37 L705.93 117.81 L702.49 116.28 L699.03 114.77 L695.55 113.29 L692.05 111.84 L688.53 110.41 L684.99 109.01 L681.44 107.64 L677.86 106.29 L674.27 104.97 L670.66 103.68 L667.04 102.41 L663.39 101.17 L659.74 99.96 L656.06 98.77 L652.37 97.62 L648.66 96.49 L644.94 95.39 L641.21 94.32 L637.46 93.27 L633.70 92.25 L629.92 91.26 L626.13 90.30 L622.33 89.37 L618.51 88.47 L614.69 87.60 L610.85 86.75 L607.00 85.93 L603.14 85.14 L599.27 84.39 L595.39 83.66 L591.50 82.95 L587.60 82.28 L583.70 81.64 L579.78 81.03 L575.86 80.44 L571.93 79.89 L567.99 79.37 L564.04 78.87 L560.09 78.40 L556.13 77.97 L552.17 77.56 L548.20 77.19 L544.23 76.84 L540.25 76.52 L536.27 76.24 L532.28 75.98 L528.29 75.75 L524.30 75.55 L520.31 75.39 L516.31 75.25 L512.32 75.14 L508.32 75.06 L504.32 75.02 L500.32 75.00 L496.32 75.01 L492.32 75.06 L488.32 75.13 L484.32 75.23 L480.33 75.36 L476.33 75.53 L472.34 75.72 L468.35 75.94 L464.37 76.19 L460.38 76.47 L456.41 76.79 L452.43 77.13 L448.46 77.50 L444.50 77.90 L440.54 78.33 L436.59 78.79 L432.64 79.28 L428.70 79.80 L424.77 80.35 L420.84 80.93 L416.93 81.54 L413.02 82.18 L409.12 82.85 L405.23 83.54 L401.35 84.27 L397.48 85.02 L393.61 85.81 L389.76 86.62 L385.92 87.46 L382.10 88.33 L378.28 89.23 L374.48 90.15 L370.68 91.11 L366.91 92.09 L363.14 93.11 L359.39 94.15 L355.65 95.22 L351.93 96.31 L348.22 97.44 L344.53 98.59 L340.85 99.77 L337.19 100.98 L333.54 102.21 L329.91 103.47 L326.30 104.76 L322.71 106.08 L319.13 107.42 L315.57 108.79 L312.03 110.19 L308.51 111.61 L305.01 113.06 L301.52 114.54 L298.06 116.04 L294.62 117.56 L291.20 119.12 L287.80 120.70 L284.42 122.30 L281.06 123.93 L277.72 125.58 L274.41 127.26 L271.11 128.97 L267.85 130.70 L264.60 132.45 L261.38 134.23 L258.18 136.03 L255.00 137.86 L251.86 139.71 L248.73 141.58 L245.63 143.47 L242.56 145.39 L239.51 147.34 L236.49 149.30 L233.49 151.29 L230.52 153.30 L227.58 155.33 L224.66 157.38 L221.77 159.46 L218.91 161.56 L216.08 163.68 L213.28 165.82 L210.50 167.98 L207.76 170.16 L205.04 172.36 L202.36 174.58 L199.70 176.83 L197.07 179.09 L194.47 181.37 L191.91 183.67 L189.37 185.99 L186.87 188.33 L184.39 190.69 L181.95 193.06 L179.54 195.46 L177.16 197.87 L174.82 200.30 L172.51 202.75 L170.23 205.21 L167.98 207.69 L165.76 210.19 L163.58 212.71 L161.44 215.24 L159.32 217.79 L157.24 220.35 L155.20 222.93 L153.19 225.52 L151.21 228.13 L149.27 230.75 L147.37 233.39 L145.50 236.04 L143.66 238.71 L141.86 241.39 L140.10 244.08 L138.37 246.79 L136.68 249.50 L135.02 252.24 L133.41 254.98 L131.82 257.73 L130.28 260.50 L128.77 263.28 L127.30 266.07 L125.87 268.87 L124.47 271.68 L123.11 274.50 L121.79 277.34 L120.51 280.18 L119.26 283.03 L118.05 285.89 L116.89 288.76 L115.75 291.63 L114.66 294.52 L113.61 297.41 L112.59 300.32 L111.62 303.23 L110.68 306.14 L109.78 309.06 L108.92 311.99 L108.10 314.93 L107.32 317.87 L106.58 320.82 L105.87 323.77 L105.21 326.73 L104.59 329.70 L104.00 332.66 L103.46 335.64 L102.95 338.61 L102.49 341.59 L102.06 344.57 L101.68 347.56 L101.33 350.55 L101.02 353.54 L100.76 356.53 L100.53 359.53 L100.35 362.53 L100.20 365.52 L100.09 368.52 L100.03 371.52 L100.00 374.52 L100.01 377.52 L100.07 380.52 L100.16 383.52 L100.29 386.52 L100.47 389.52 L100.68 392.51 L100.94 395.51 L101.23 398.50 L101.56 401.49 L101.94 404.47 L102.35 407.46 L102.80 410.44 L103.29 413.42 L103.83 416.39 L104.40 419.36 L105.01 422.32 L105.66 425.28 L106.35 428.24 L107.08 431.19 L107.85 434.13 L108.66 437.07 L109.50 440.00 L110.39 442.93 L111.31 445.85 L112.28 448.76 L113.28 451.66 L114.32 454.56 L115.40 457.45 L116.52 460.33 L117.68 463.20 L118.87 466.06 L120.11 468.92 L121.38 471.76 L122.69 474.60 L124.03 477.42 L125.42 480.23 L126.84 483.04 L128.30 485.83 L129.79 488.61 L131.33 491.39 L132.90 494.14 L134.51 496.89 L136.15 499.63 L137.83 502.35 L139.54 505.06 L141.30 507.76 L143.08 510.44 L144.91 513.11 L146.77 515.77 L148.66 518.41 L150.59 521.04 L152.56 523.65 L154.56 526.25 L156.59 528.83 L158.66 531.40 L160.76 533.95 L162.90 536.49 L165.07 539.01 L167.27 541.51 L169.51 544.00 L171.78 546.47 L174.08 548.92 L176.41 551.36 L178.78 553.78 L181.18 556.18 L183.61 558.56 L186.08 560.92 L188.57 563.27 L191.10 565.59 L193.65 567.90 L196.24 570.19 L198.86 572.46 L201.51 574.70 L204.18 576.93 L206.89 579.14 L209.63 581.33 L212.39 583.50 L215.19 585.64 L218.01 587.77 L220.86 589.87 L223.74 591.96 L226.65 594.02 L229.58 596.06 L232.54 598.07 L235.53 600.07 L238.54 602.04 L241.58 603.99 L244.65 605.92 L247.74 607.82 L250.86 609.70 L254.00 611.56 L257.17 613.39 L260.36 615.20 L263.57 616.99 L266.81 618.75 L270.07 620.48 L273.35 622.20 L276.66 623.88 L279.99 625.55 L283.34 627.18 L286.72 628.80 L290.11 630.38 L293.53 631.94 L296.96 633.48 L300.42 634.99 L303.90 636.47 L307.39 637.93 L310.91 639.36 L314.44 640.77 L317.99 642.15 L321.57 643.50 L325.15 644.82 L328.76 646.12 L332.38 647.39 L336.02 648.63 L339.68 649.85 L343.35 651.04 L347.04 652.20 L350.74 653.33 L354.46 654.44 L358.20 655.52 L361.94 656.57 L365.70 657.59 L369.48 658.58 L373.27 659.54 L377.07 660.48 L380.88 661.39 L384.70 662.27 L388.54 663.12 L392.39 663.94 L396.24 664.73 L400.11 665.50 L403.99 666.23 L407.88 666.94 L411.78 667.61 L415.68 668.26 L419.60 668.88 L423.52 669.47 L427.45 670.02 L431.39 670.55 L435.33 671.05 L439.28 671.52 L443.24 671.96 L447.20 672.37 L451.17 672.76 L455.14 673.11 L459.12 673.43 L463.10 673.72 L467.08 673.98 L471.07 674.21 L475.06 674.42 L479.05 674.59 L483.05 674.73 L487.05 674.84 L491.05 674.92 L495.04 674.98 L499.04 675.00 L503.04 674.99 L507.04 674.95 L511.04 674.89 L515.04 674.79 L519.04 674.66 L523.03 674.50 L527.02 674.31 L531.01 674.10 L535.00 673.85 L538.98 673.57 L542.96 673.26 L546.94 672.93 L550.91 672.56 L554.87 672.16 L558.83 671.74 L562.78 671.28 L566.73 670.80 L570.67 670.28 L574.60 669.74 L578.53 669.16 L582.45 668.56 L586.36 667.92 L590.26 667.26 L594.15 666.57 L598.04 665.85 L601.91 665.10 L605.77 664.32 L609.62 663.51 L613.46 662.68 L617.29 661.81 L621.11 660.92 L624.92 660.00 L628.71 659.04 L632.49 658.06 L636.26 657.06 L640.01 656.02 L643.75 654.96 L647.48 653.86 L651.19 652.74 L654.89 651.60 L658.57 650.42 L662.23 649.22 L665.88 647.99 L669.51 646.73 L673.13 645.45 L676.72 644.13 L680.30 642.79 L683.86 641.43 L687.41 640.04 L690.93 638.62 L694.44 637.17 L697.92 635.70 L701.39 634.20 L704.83 632.68 L708.26 631.13 L711.66 629.56 L715.05 627.96 L718.41 626.33 L721.75 624.68 L725.07 623.00 L728.36 621.30 L731.64 619.58 L734.89 617.83 L738.11 616.06 L741.31 614.26 L744.49 612.44 L747.64 610.59 L750.77 608.72 L753.88 606.83 L756.96 604.91 L760.01 602.98 L763.03 601.01 L766.04 599.03 L769.01 597.02 L771.96 594.99 L774.88 592.94 L777.77 590.87 L780.63 588.78 L783.47 586.66 L786.28 584.53 L789.06 582.37 L791.81 580.19 L794.53 577.99 L797.22 575.77 L799.88 573.53 L802.51 571.27 L805.11 569.00 L807.69 566.70 L810.23 564.38 L812.74 562.04 L815.21 559.69 L817.66 557.32 L820.08 554.92 L822.46 552.51 L824.81 550.09 L827.13 547.64 L829.41 545.18 L831.67 542.70 L833.89 540.21 L836.07 537.69 L838.22 535.16 L840.34 532.62 L842.43 530.06 L844.48 527.48 L846.49 524.89 L848.47 522.29 L850.42 519.67 L852.33 517.03 L854.21 514.38 L856.05 511.72 L857.85 509.04 L859.62 506.35 L861.36 503.65 L863.05 500.93 L864.71 498.20 L866.34 495.46 L867.93 492.71 L869.48 489.94 L870.99 487.16 L872.47 484.38 L873.91 481.58 L875.31 478.77 L876.68 475.95 L878.00 473.12 L879.29 470.28 L880.54 467.43 L881.76 464.57 L882.93 461.70 L884.07 458.82 L885.17 455.94 L886.23 453.05 L887.25 450.15 L888.23 447.24 L889.17 444.32 L890.08 441.40 L890.94 438.47 L891.77 435.54 L892.56 432.60 L893.31 429.65 L894.02 426.70 L894.69 423.74 L895.32 420.78 L895.91 417.81 L896.46 414.84 L896.97 411.86 L897.44 408.88 L897.87 405.90 L898.26 402.92 L898.62 399.93 L898.93 396.94 L899.20 393.94 L899.43 390.95 L899.63 387.95 L899.78 384.95 L899.89 381.95 L899.97 378.96 L900.00 375.96 " style="fill:none;stroke:#ff0000;stroke-width:1;" /><rect x="498.00" y="373.00" width="5.00" height="5.00" style="fill:#000000;stroke:none;" /><rect x="898.00" y="373.00" width="5.00" height="5.00" style="fill:#000000;stroke:none;" /><rect x="498.00" y="73.00" width="5.00" height="5.00" style="fill:#000000;stroke:none;" /><rect x="98.00" y="373.00" width="5.00" height="5.00" style="fill:#000000;stroke:none;" /><rect x="498.00" y="673.00" width="5.00" height="5.00" style="fill:#000000;stroke:none;" /></g></svg>